# xmcd
#
# Track frame offsets: 
#        150
#        22900
#        42654
#        59358
#        78330
#        93937
#        110760
#        132099
#        147613
#        165662
#        183080
#        199741
#        217149
#        235488
#        253762
#        271439
#        288812
#        308295
#        323156
#        342311
#
# Disc length: 4744 seconds
#
# Revision: 0
# Processed by: cddbd v1.5.2PL0 Copyright (c) Steve Scherf et al.
# Submitted via: ExactAudioCopy v0.95a4
#
DISCID=27128614
DTITLE=Various Artist - R&B Lovesongs 2009
DYEAR=2009
DGENRE=R&B
TTITLE0=Puff Daddy and Faith Evans/I'll Be Missing You
TTITLE1=Jordin Sparks Feat. Chris Brown/No Air
TTITLE2=Usher/Love In This Club
TTITLE3=Chris Brown/With You
TTITLE4=Lemar/If She Knew
TTITLE5=Justin Timberlake/My Love
TTITLE6=John Legend Feat. Andre 3000/Green Light
TTITLE7=Trey Songz/Gotta Make It
TTITLE8=TLC/Unpretty
TTITLE9=Joe/If I Was Your Man
TTITLE10=Keith Sweat/I Want Her
TTITLE11=Luther Vandross/Never Too Much
TTITLE12=Kandi/Don't Think I'm Not
TTITLE13=Christina Aguilera/Hurt
TTITLE14=Kelly Rowland/Stole
TTITLE15=Aaliyah/Back and Forth
TTITLE16=All-4-One/I Swear
TTITLE17=Missy Elliott/The Rain
TTITLE18=Natty/Bedroom Eyes
TTITLE19=Wiley Feat. Daniel Merriweather/Cash In My Pocket
EXTD=
EXTT0=
EXTT1=
EXTT2=
EXTT3=
EXTT4=
EXTT5=
EXTT6=
EXTT7=
EXTT8=
EXTT9=
EXTT10=
EXTT11=
EXTT12=
EXTT13=
EXTT14=
EXTT15=
EXTT16=
EXTT17=
EXTT18=
EXTT19=
PLAYORDER=
